<svg width="73" height="73" viewBox="0 0 73 73" fill="none" xmlns="http://www.w3.org/2000/svg">
<path d="M68.4375 36.5C68.4375 54.1294 54.1455 68.4374 36.5 68.4374C18.8545 68.4374 4.5625 54.1294 4.5625 36.5C4.5625 18.8545 18.8545 4.56247 36.5 4.56247C54.1455 4.56247 68.4375 18.8545 68.4375 36.5Z" fill="white"/>
<path d="M51.4698 28.4184C51.2955 28.5201 47.1468 30.6657 47.1468 35.4229C47.3423 40.8483 52.3823 42.7509 52.4688 42.7509C52.3823 42.8526 51.7079 45.3428 49.71 47.9531C48.1244 50.2017 46.3646 52.4688 43.6923 52.4688C41.1503 52.4688 40.2378 50.9701 37.3048 50.9701C34.1549 50.9701 33.2637 52.4688 30.8521 52.4688C28.1798 52.4688 26.2896 50.0802 24.6176 47.8528C22.4454 44.9374 20.5992 40.3624 20.534 35.9695C20.4901 33.6418 20.969 31.3536 22.1847 29.41C23.9006 26.6967 26.964 24.8548 30.3094 24.794C32.8726 24.7135 35.1539 26.4339 36.7182 26.4339C38.2173 26.4339 41.02 24.794 44.191 24.794C45.5598 24.7953 49.2098 25.1796 51.4698 28.4184ZM36.5014 24.3293C36.0451 22.2035 37.3048 20.0777 38.478 18.7217C39.9771 17.0818 42.3448 15.9688 44.3866 15.9688C44.5169 18.0945 43.6909 20.1794 42.2144 21.6978C40.8896 23.3377 38.6084 24.5722 36.5014 24.3293Z" fill="black"/>
</svg>
