<svg width="52" height="52" viewBox="0 0 52 52" fill="none" xmlns="http://www.w3.org/2000/svg">
<mask id="mask0_283_3714" style="mask-type:alpha" maskUnits="userSpaceOnUse" x="11" y="4" width="40" height="44">
<path d="M48.8286 23.4007C50.8905 24.5353 50.8905 27.4647 48.8286 28.5993L15.8539 46.7445C13.8458 47.8495 11.375 46.4156 11.375 44.1452L11.375 7.85483C11.375 5.58443 13.8458 4.15049 15.8539 5.25549L48.8286 23.4007Z" fill="#C4C4C4"/>
</mask>
<g mask="url(#mask0_283_3714)">
<path d="M12.4064 46.388L32.975 25.7039L12.7452 5.36035C11.9381 5.87773 11.375 6.77097 11.375 7.85484V44.1452C11.375 45.0699 11.7849 45.8559 12.4064 46.388Z" fill="url(#paint0_linear_283_3714)"/>
<path d="M48.8282 23.4007C50.89 24.5353 50.89 27.4647 48.8282 28.5993L40.5093 33.177L32.9746 25.7037L40.1251 18.6116L48.8282 23.4007Z" fill="url(#paint1_linear_283_3714)"/>
<path d="M40.5096 33.177L32.9749 25.7037L12.4062 46.3879C13.3108 47.1624 14.6636 47.3995 15.8538 46.7445L40.5096 33.177Z" fill="url(#paint2_linear_283_3714)"/>
<path d="M12.7451 5.36031L32.9749 25.7038L40.1254 18.6116L15.8538 5.25549C14.8044 4.67802 13.6286 4.79396 12.7451 5.36031Z" fill="url(#paint3_linear_283_3714)"/>
</g>
<defs>
<linearGradient id="paint0_linear_283_3714" x1="25.475" y1="17.67" x2="11.4905" y2="31.7695" gradientUnits="userSpaceOnUse">
<stop stop-color="#00C3FF"/>
<stop offset="1" stop-color="#1BE2FA"/>
</linearGradient>
<linearGradient id="paint1_linear_283_3714" x1="32.9746" y1="25.7038" x2="51.5746" y2="25.7038" gradientUnits="userSpaceOnUse">
<stop stop-color="#FFCE00"/>
<stop offset="1" stop-color="#FFEA00"/>
</linearGradient>
<linearGradient id="paint2_linear_283_3714" x1="11.9749" y1="48.9128" x2="36.7166" y2="29.0769" gradientUnits="userSpaceOnUse">
<stop stop-color="#DE2453"/>
<stop offset="1" stop-color="#FE3944"/>
</linearGradient>
<linearGradient id="paint3_linear_283_3714" x1="13.1749" y1="3.08972" x2="36.7208" y2="22.3218" gradientUnits="userSpaceOnUse">
<stop stop-color="#11D574"/>
<stop offset="1" stop-color="#01F176"/>
</linearGradient>
</defs>
</svg>
